<svg xmlns="http://www.w3.org/2000/svg" width="1200" height="630" viewBox="0 0 1200 630">
  <!-- Background -->
  <rect width="1200" height="630" fill="#1a1a1a"/>
  
  <!-- Logo (scaled and centered) -->
  <g transform="translate(145, 194) scale(0.8)">
    <path fill="#D4AF37" d="M138.146 154.633c-16.973 17.26-34.34 25.89-52.1 25.89-5.156 0-10.116-.665-14.878-1.99-4.764-1.323-10.564-3.56-17.402-6.712-6.84-3.15-12.874-5.44-18.1-6.87-9.67 10.6-18.407 15.9-26.212 15.9-2.723 0-4.98-.89-6.768-2.68C.896 176.37 0 174.19 0 171.61c0-5.44 2.667-10.225 8.003-14.34 5.334-4.12 12.872-6.967 22.612-8.54 4.082-5.59 6.695-11.05 7.842-16.386 1.145-5.33 2.04-14.12 2.686-26.37 1.217-25.203 7.966-44.952 20.25-59.24 12.28-14.286 25.62-21.43 40.014-21.43 9.883 0 17.993 3.134 24.33 9.4 6.34 6.267 9.508 14.27 9.508 24.01 0 11.242-3.33 21.09-9.99 29.54s-14.324 12.675-22.988 12.675c-4.512 0-8.057-1.24-10.635-3.71-2.578-2.47-3.867-5.86-3.867-10.15 0-2.22.43-4.8 1.29-7.74 1.933 2.22 4.366 3.33 7.304 3.33 4.86 0 9.13-2.9 12.78-8.7 3.65-5.8 5.48-12.71 5.48-20.74 0-6.16-1.4-11.01-4.19-14.56-2.79-3.55-6.62-5.32-11.48-5.32-5.87 0-10.43 2.11-13.69 6.34s-5.53 9.272-6.82 15.15c-1.29 5.87-2.66 15.36-4.12 28.47-1.46 13.1-3.89 24.72-7.3 34.852-3.42 10.13-9.79 20.065-19.13 29.8 6.09-.43 11.37-.07 15.84 1.08 4.47 1.143 10.88 3.31 19.23 6.495 8.34 3.19 15.52 4.78 21.53 4.78 11.74 0 22.95-6.01 33.62-18.04v12.35zm80.244 0c-9.096 8.953-17.26 15.56-24.492 19.818-7.234 4.26-15.22 6.4-23.955 6.4-9.74 0-17.6-3.11-23.58-9.34-5.98-6.23-8.97-14.43-8.97-24.6 0-15.18 5.265-28.91 15.792-41.19 10.527-12.28 22.2-18.42 35.02-18.42 6.66 0 11.994 1.72 16.006 5.16 4.01 3.44 6.02 7.95 6.02 13.54 0 14.83-15.75 26.86-47.26 36.1 2.87 13.97 10.35 20.95 22.45 20.95 4.73 0 9.24-1.27 13.54-3.81 4.3-2.54 10.78-8.18 19.45-16.92v12.36zM162.1 134.76c18.333-5.156 27.5-14.68 27.5-28.575 0-6.875-2.507-10.313-7.52-10.313-4.726 0-9.237 3.6-13.534 10.796-4.297 7.197-6.445 16.562-6.445 28.092zm171.017 19.873c-11.46 10.887-19.658 17.977-24.6 21.27-4.942 3.293-9.668 4.94-14.18 4.94-11.316 0-16.65-9.99-16.006-29.97-7.16 10.242-13.76 17.797-19.81 22.666-6.05 4.86-12.3 7.3-18.74 7.3-6.3 0-11.65-2.96-16.06-8.87-4.4-5.91-6.6-13.16-6.6-21.75 0-10.75 2.96-20.99 8.87-30.73 5.91-9.74 13.48-17.62 22.72-23.64 9.24-6.02 17.4-9.03 24.49-9.03 8.95 0 15.22 4.12 18.8 12.35l21.96-12.14h6.03l-9.47 31.48c-4.88 15.83-7.32 26.68-7.32 32.55 0 6.15 2.18 9.23 6.55 9.23 2.79 0 5.87-1.49 9.23-4.46 3.36-2.97 8.09-7.5 14.17-13.59v12.36zm-78.633 5.908c7.16 0 13.91-6.1 20.25-18.31 6.337-12.21 9.506-23.47 9.506-33.78 0-4.01-.896-7.14-2.686-9.4-1.79-2.25-4.19-3.38-7.197-3.38-7.162 0-13.948 6.09-20.356 18.27-6.41 12.18-9.61 23.39-9.61 33.63 0 3.87.95 7 2.85 9.4 1.9 2.4 4.31 3.6 7.25 3.6zm165.752-5.9c-7.44 8.38-14.808 14.84-22.104 19.39-7.296 4.55-13.806 6.82-19.53 6.82-2.718 0-6.437-1.03-11.157-3.1-3.02 15.75-5.682 32.76-7.983 51.01-7.456 1.01-16.417 2.55-26.882 4.63 2.29-19.62 6.266-45.08 11.922-76.37-.79-1.36-2.186-4.79-4.19-10.31l-7.195 7.95h-2.47v-9.67l20.478-21.23c3.892-19.21 7.056-33.12 9.492-41.71 2.434-8.59 5.836-18.1 10.205-28.52 4.367-10.42 7.125-16.4 8.27-17.94 1.146-1.54 3.922-3.01 8.326-4.4 4.404-1.39 9.112-2.72 14.126-3.97 5.012-1.25 7.697-1.88 8.057-1.88 2.73 0 4.95 1.77 6.66 5.32 1.72 3.54 2.58 8.21 2.58 14.007 0 10.02-2.64 19.677-7.93 28.977s-15.29 20.74-30 34.334l-9.03 44.9c3.5 7.51 8.76 11.267 15.76 11.267 10.01 0 20.88-7.27 32.6-21.81v12.357zM384.16 93.41c8.372-7.305 14.937-15.164 19.698-23.58 4.76-8.415 7.14-16.168 7.14-23.26 0-3.007-.554-5.478-1.66-7.41-1.107-1.935-2.48-2.9-4.122-2.9-3.142 0-6.338 4.12-9.586 12.36-3.25 8.24-7.073 23.17-11.47 44.79zm107.082 61.23c-9.74 8.95-18.28 15.56-25.62 19.816-7.342 4.26-14.34 6.395-21 6.395-7.665 0-13.842-2.97-18.53-8.91-4.692-5.94-7.037-13.93-7.037-23.95 0-15.04 3.258-33.08 9.775-54.14 6.516-21.05 14.43-40.46 23.74-58.22l27.285-10.1c.86-.28 1.504-.43 1.934-.43 2.07 0 3.77 1.53 5.1 4.57 1.32 3.05 1.98 7.15 1.98 12.3 0 14.61-3.37 28.76-10.1 42.44-6.73 13.68-17.26 28.29-31.58 43.83-.58 7.45-.86 12.57-.86 15.36 0 6.23 1.14 11.17 3.44 14.83 2.29 3.65 5.33 5.48 9.13 5.48 3.87 0 7.98-1.4 12.35-4.19 4.36-2.79 11.02-8.59 19.98-17.4v12.356zM450.1 112.63c9.093-10.11 16.47-21.442 22.128-33.994 5.656-12.55 8.486-23.342 8.486-32.38 0-2.653-.395-4.786-1.182-6.4-.79-1.614-1.79-2.42-3.008-2.42-2.65 0-6.5 6.597-11.548 19.793-5.048 13.19-10.008 31.66-14.877 55.4zm121.493 42.003c-9.096 8.953-17.26 15.56-24.492 19.818-7.23 4.26-15.21 6.4-23.95 6.4-9.74 0-17.6-3.11-23.58-9.34-5.98-6.23-8.97-14.43-8.97-24.6 0-15.18 5.27-28.91 15.79-41.19 10.53-12.28 22.2-18.42 35.02-18.42 6.66 0 12 1.72 16.01 5.16 4.01 3.44 6.02 7.95 6.02 13.54 0 14.83-15.75 26.86-47.26 36.1 2.87 13.97 10.35 20.95 22.45 20.95 4.73 0 9.24-1.27 13.54-3.81 4.3-2.54 10.78-8.18 19.45-16.92v12.36zm-56.29-19.873c18.333-5.156 27.5-14.68 27.5-28.575 0-6.875-2.507-10.313-7.52-10.313-4.726 0-9.237 3.6-13.534 10.796-4.3 7.197-6.45 16.562-6.45 28.092zm118.165 19.873c-9.023 8.953-16.83 15.56-23.418 19.818-6.59 4.26-12.855 6.4-18.8 6.4-6.16 0-11.154-2.59-14.984-7.79-3.832-5.19-5.747-12.01-5.747-20.46 0-7.44 1.83-17.28 5.51-29.5l4.56-16.26-8.25.43 3.44-16.86 10.21-.43 10.08-33.52 28.69-5.89-11.1 37.36 15.17-.86-3.55 16.55-16.67 1.29-7.16 24.07c-2.49 8.37-3.73 15.02-3.73 19.97 0 3.37.84 6.11 2.52 8.23 1.682 2.12 3.85 3.17 6.51 3.17 3.653 0 7.28-1.16 10.86-3.49 3.59-2.32 8.86-7.18 15.82-14.55v12.35z"/>
  </g>
  
  <!-- Title -->
  <text x="600" y="400" text-anchor="middle" fill="#D4AF37" font-family="Arial, sans-serif" font-size="48" font-weight="bold">GUNSMITHLOCAL</text>
  
  <!-- Subtitle -->
  <text x="600" y="450" text-anchor="middle" fill="#9CA3AF" font-family="Arial, sans-serif" font-size="24">Find Trusted Gunsmiths Near You</text>
  
  <!-- Features -->
  <text x="600" y="500" text-anchor="middle" fill="#9CA3AF" font-family="Arial, sans-serif" font-size="18">Professional Firearm Services • Verified Gunsmiths • Local Experts</text>
</svg>
